# xmcd CD database file
#
# Track frame offsets:
#	150
#	50905
#	91467
#	173072
#	250740
#
# Disc length: 4331 seconds
#
# Revision: 0
# Processed by: cddbd v1.5.1PL0 Copyright (c) Steve Scherf et al.
# Submitted via: CDex 1.51
#
DISCID=3d10e905
DTITLE=Conte Candoli, Carl Fontana - The Complete Phoenix Recordings volume2 of 6
DYEAR=1900
DGENRE=Jazz
TTITLE0=I Should Care
TTITLE1=Emily
TTITLE2=On the Trail
TTITLE3=Girl of My Dreams
TTITLE4=OW
EXTD=
EXTT0=
EXTT1=
EXTT2=
EXTT3=
EXTT4=
PLAYORDER=
